<svg id="Outline" xmlns="http://www.w3.org/2000/svg" viewBox="0 0 512 512"><defs><style>.cls-1{fill:#fff;}</style></defs><path class="cls-1" d="M484.54,87a63.84,63.84,0,0,0-49.13-23H90.5l-.9-7.49A64,64,0,0,0,26.07,0H21.33a21.34,21.34,0,0,0,0,42.67h4.74A21.32,21.32,0,0,1,47.25,61.5L76.61,311.1a106.67,106.67,0,0,0,105.94,94.23H405.33a21.33,21.33,0,1,0,0-42.66H182.55A64,64,0,0,1,122.39,320H376.68a106.66,106.66,0,0,0,105-87.74l16.75-92.89A63.88,63.88,0,0,0,484.54,87Zm-28,44.82-16.76,92.88a64,64,0,0,1-63.09,52.65H115.61L95.53,106.67H435.41a21.32,21.32,0,0,1,21.46,21.2A20.73,20.73,0,0,1,456.53,131.8Z"/><circle class="cls-1" cx="149.33" cy="469.33" r="42.67"/><circle class="cls-1" cx="362.67" cy="469.33" r="42.67"/></svg>